<?xml version="1.0" standalone="no"?>
<!DOCTYPE svg PUBLIC "-//W3C//DTD SVG 20010904//EN"
 "http://www.w3.org/TR/2001/REC-SVG-20010904/DTD/svg10.dtd">
<svg version="1.0" xmlns="http://www.w3.org/2000/svg"
 width="1024.000000pt" height="1024.000000pt" viewBox="0 0 1024.000000 1024.000000"
 preserveAspectRatio="xMidYMid meet">

<g transform="translate(0.000000,1024.000000) scale(0.100000,-0.100000)"
fill="#000000" stroke="none">
<path d="M2206 6206 c-100 -37 -161 -127 -160 -236 0 -53 6 -76 27 -115 15
-26 26 -49 25 -50 -2 -1 -92 -77 -201 -169 l-199 -168 -21 20 c-99 91 -260 85
-346 -13 -46 -53 -61 -93 -61 -165 0 -112 70 -205 178 -236 87 -26 186 5 247
78 14 17 30 27 34 22 13 -15 257 -348 265 -362 5 -8 -5 -26 -28 -48 -56 -54
-76 -102 -76 -182 0 -59 4 -75 33 -122 21 -37 48 -64 81 -85 44 -27 58 -30
125 -30 85 1 117 13 170 67 48 48 71 103 71 173 0 77 -24 129 -83 182 -68 59
-161 78 -239 48 -12 -5 -53 42 -167 195 -134 180 -162 230 -131 230 7 0 900
-437 907 -444 2 -2 -4 -19 -12 -39 -47 -114 16 -265 132 -314 42 -17 144 -17
186 0 160 68 199 295 69 408 -49 44 -97 62 -162 62 -65 0 -113 -18 -162 -62
l-36 -32 -389 192 c-213 105 -421 207 -460 226 -72 33 -73 35 -73 72 l0 38
203 17 c111 10 297 26 412 37 280 25 257 27 278 -25 10 -25 38 -63 62 -85 120
-111 303 -78 378 68 83 165 -30 351 -215 351 -75 0 -132 -25 -182 -80 -36 -40
-73 -138 -62 -165 6 -18 5 -18 -434 -55 -195 -16 -374 -32 -398 -36 -42 -5
-43 -5 -58 33 -10 22 -13 42 -8 49 5 7 86 76 179 154 94 79 180 152 192 163
22 19 22 19 50 0 93 -65 221 -56 302 20 125 119 98 321 -53 399 -51 26 -139
33 -190 14z"/>
<path d="M8030 5235 l0 -655 80 0 80 0 0 126 0 126 76 84 77 84 61 -89 c33
-49 96 -144 139 -210 l77 -121 90 0 90 0 -24 38 c-13 20 -92 140 -175 266
-151 227 -152 229 -133 250 181 204 278 312 285 314 4 2 7 8 7 13 0 5 -36 9
-79 9 l-79 0 -143 -157 c-78 -87 -171 -188 -206 -226 l-63 -67 0 435 0 435
-80 0 -80 0 0 -655z"/>
<path d="M6629 5821 c-42 -42 -47 -66 -24 -111 19 -37 43 -50 94 -50 83 0 132
86 87 154 -37 58 -104 61 -157 7z"/>
<path d="M5798 5832 l-78 -3 0 -627 0 -627 335 3 335 3 0 65 0 65 -250 -3
-250 -3 -2 525 c-2 630 -2 598 -8 602 -3 2 -40 2 -82 0z"/>
<path d="M3503 5823 l-73 -4 0 -619 0 -620 85 0 85 0 0 280 0 280 141 0 c162
0 255 -17 321 -59 133 -85 106 -314 -44 -376 -31 -13 -79 -20 -174 -23 l-132
-4 -31 -44 c-17 -25 -31 -46 -31 -48 0 -12 187 -28 265 -22 267 18 405 134
405 342 0 107 -21 166 -80 225 -25 25 -58 49 -72 52 -14 4 -48 16 -74 27 -54
24 -55 23 46 77 116 63 150 222 79 370 -42 87 -137 143 -277 163 -63 9 -277
10 -439 3z m422 -137 c66 -17 112 -41 130 -69 24 -37 30 -126 11 -189 -20 -71
-46 -102 -109 -136 -49 -25 -62 -27 -204 -30 l-153 -4 0 221 0 220 43 4 c68 8
228 -2 282 -17z"/>
<path d="M4588 5814 c-31 -16 -58 -61 -58 -95 0 -11 15 -36 34 -55 29 -29 41
-34 79 -34 38 0 49 5 71 31 52 61 22 147 -55 163 -40 8 -39 8 -71 -10z"/>
<path d="M5083 5733 l-73 -15 0 -129 0 -129 -60 0 -60 0 0 -34 c0 -19 -3 -41
-6 -50 -5 -14 4 -16 60 -16 l66 0 0 -292 c1 -219 4 -303 14 -331 31 -85 119
-160 204 -173 44 -7 137 9 204 35 l27 10 -16 41 c-16 39 -17 40 -52 33 -20 -5
-59 -8 -88 -8 -67 0 -102 25 -126 91 -16 45 -17 86 -13 517 2 257 1 466 -2
466 -4 -1 -40 -8 -79 -16z"/>
<path d="M6683 5482 l-63 -3 0 -449 0 -450 80 0 81 0 -3 452 c-3 392 -5 451
-18 452 -8 1 -43 0 -77 -2z"/>
<path d="M7475 5474 c-83 -19 -119 -31 -180 -61 -38 -19 -75 -39 -82 -45 -13
-10 -24 9 -39 67 -6 23 -11 25 -70 25 l-64 0 0 -440 0 -440 83 0 82 0 -3 365
-2 365 22 0 c13 0 61 12 107 25 47 14 100 25 118 25 74 0 142 -54 163 -128 6
-22 10 -164 10 -344 l0 -308 83 0 83 0 -3 233 c-6 446 -7 468 -30 517 -24 53
-74 103 -124 124 -39 16 -123 27 -154 20z"/>
<path d="M4560 5020 l0 -440 80 0 80 0 0 303 c0 167 -3 365 -7 440 l-6 137
-74 0 -73 0 0 -440z"/>
<path d="M5246 5448 c4 -7 20 -32 36 -55 l29 -43 69 0 70 0 0 55 0 55 -106 0
c-81 0 -104 -3 -98 -12z"/>
</g>
</svg>
