<svg width="48" height="48" viewBox="0 0 48 48" fill="none" xmlns="http://www.w3.org/2000/svg">
<g clip-path="url(#clip0_38_43)">
<path d="M18 2V8M30 2V8M18 40V46M30 40V46M40 18H46M40 28H46M2 18H8M2 28H8M12 8H36C38.2091 8 40 9.79086 40 12V36C40 38.2091 38.2091 40 36 40H12C9.79086 40 8 38.2091 8 36V12C8 9.79086 9.79086 8 12 8ZM18 18H30V30H18V18Z" stroke="black" stroke-width="4" stroke-linecap="round" stroke-linejoin="round"/>
</g>
<defs>
<clipPath id="clip0_38_43">
<rect width="48" height="48" fill="white"/>
</clipPath>
</defs>
</svg>
