<svg width="50" height="50" viewBox="0 0 50 50" fill="none" xmlns="http://www.w3.org/2000/svg">
<path d="M18.75 39.5833C8.33329 42.7083 8.33329 34.375 4.16663 33.3333M33.3333 45.8333V37.7708C33.4114 36.7774 33.2772 35.7787 32.9396 34.8412C32.6019 33.9037 32.0686 33.0487 31.375 32.3333C37.9166 31.6041 44.7916 29.125 44.7916 17.75C44.7911 14.8413 43.6722 12.0441 41.6666 9.93745C42.6163 7.39267 42.5492 4.57985 41.4791 2.08328C41.4791 2.08328 39.0208 1.35412 33.3333 5.16662C28.5583 3.8725 23.5249 3.8725 18.75 5.16662C13.0625 1.35412 10.6041 2.08328 10.6041 2.08328C9.53408 4.57985 9.46693 7.39267 10.4166 9.93745C8.39606 12.0597 7.27605 14.8822 7.29163 17.8125C7.29163 29.1041 14.1666 31.5833 20.7083 32.3958C20.0229 33.1041 19.4943 33.9487 19.1569 34.8748C18.8194 35.8009 18.6808 36.7876 18.75 37.7708V45.8333" stroke="white" stroke-width="4" stroke-linecap="round" stroke-linejoin="round"/>
</svg>
