<svg width="50" height="50" viewBox="0 0 50 50" fill="none" xmlns="http://www.w3.org/2000/svg">
<path d="M40.8674 43.117L40.8968 39.1171C40.9123 36.9955 40.0845 34.9545 38.5952 33.4432C37.106 31.932 35.0774 31.0742 32.9557 31.0586L16.9562 30.9411C14.8345 30.9255 12.7935 31.7534 11.2823 33.2426C9.77098 34.7318 8.9132 36.7604 8.89762 38.8821L8.86823 42.882M33.0733 15.059C33.0408 19.4772 29.4329 23.0325 25.0147 23C20.5966 22.9676 17.0412 19.3596 17.0737 14.9415C17.1062 10.5233 20.7141 6.96801 25.1323 7.00047C29.5504 7.03293 33.1057 10.6409 33.0733 15.059Z" stroke="black" stroke-width="4" stroke-linecap="round" stroke-linejoin="round"/>
</svg>
