<svg width="461" height="133" viewBox="0 0 461 133" fill="none" xmlns="http://www.w3.org/2000/svg">
<g filter="url(#filter0_d_2_45)">
<g filter="url(#filter1_i_2_45)">
<path d="M11.6 115.606C12.492 115.606 13.166 115.974 13.622 116.71C14.078 117.446 14.306 118.498 14.306 119.866C14.306 121.238 14.078 122.294 13.622 123.034C13.166 123.77 12.492 124.138 11.6 124.138C10.712 124.138 10.038 123.77 9.578 123.034C9.122 122.294 8.894 121.238 8.894 119.866C8.894 118.498 9.122 117.446 9.578 116.71C10.038 115.974 10.712 115.606 11.6 115.606ZM11.6 116.416C11.092 116.416 10.692 116.686 10.4 117.226C10.108 117.762 9.962 118.642 9.962 119.866C9.962 120.486 9.994 121.016 10.058 121.456C10.122 121.896 10.22 122.254 10.352 122.53C10.488 122.802 10.658 123.002 10.862 123.13C11.07 123.258 11.316 123.322 11.6 123.322C11.944 123.322 12.238 123.204 12.482 122.968C12.73 122.732 12.918 122.36 13.046 121.852C13.178 121.34 13.244 120.678 13.244 119.866C13.244 119.042 13.186 118.376 13.07 117.868C12.958 117.36 12.78 116.992 12.536 116.764C12.296 116.532 11.984 116.416 11.6 116.416ZM12.818 116.71L13.082 117.592L10.454 122.914L10.082 122.212L12.818 116.71ZM19.6773 115.738V123.76H18.6693V116.83L16.7733 117.982L16.3353 117.262L18.7953 115.738H19.6773ZM21.4053 123.178V124H16.6353V123.178H21.4053ZM25.9906 115.606C26.8826 115.606 27.5566 115.974 28.0126 116.71C28.4686 117.446 28.6966 118.498 28.6966 119.866C28.6966 121.238 28.4686 122.294 28.0126 123.034C27.5566 123.77 26.8826 124.138 25.9906 124.138C25.1026 124.138 24.4286 123.77 23.9686 123.034C23.5126 122.294 23.2846 121.238 23.2846 119.866C23.2846 118.498 23.5126 117.446 23.9686 116.71C24.4286 115.974 25.1026 115.606 25.9906 115.606ZM25.9906 116.416C25.4826 116.416 25.0826 116.686 24.7906 117.226C24.4986 117.762 24.3526 118.642 24.3526 119.866C24.3526 120.486 24.3846 121.016 24.4486 121.456C24.5126 121.896 24.6106 122.254 24.7426 122.53C24.8786 122.802 25.0486 123.002 25.2526 123.13C25.4606 123.258 25.7066 123.322 25.9906 123.322C26.3346 123.322 26.6286 123.204 26.8726 122.968C27.1206 122.732 27.3086 122.36 27.4366 121.852C27.5686 121.34 27.6346 120.678 27.6346 119.866C27.6346 119.042 27.5766 118.376 27.4606 117.868C27.3486 117.36 27.1706 116.992 26.9266 116.764C26.6866 116.532 26.3746 116.416 25.9906 116.416ZM27.2086 116.71L27.4726 117.592L24.8446 122.914L24.4726 122.212L27.2086 116.71ZM33.1859 115.606C34.0779 115.606 34.7519 115.974 35.2079 116.71C35.6639 117.446 35.8919 118.498 35.8919 119.866C35.8919 121.238 35.6639 122.294 35.2079 123.034C34.7519 123.77 34.0779 124.138 33.1859 124.138C32.2979 124.138 31.6239 123.77 31.1639 123.034C30.7079 122.294 30.4799 121.238 30.4799 119.866C30.4799 118.498 30.7079 117.446 31.1639 116.71C31.6239 115.974 32.2979 115.606 33.1859 115.606ZM33.1859 116.416C32.6779 116.416 32.2779 116.686 31.9859 117.226C31.6939 117.762 31.5479 118.642 31.5479 119.866C31.5479 120.486 31.5799 121.016 31.6439 121.456C31.7079 121.896 31.8059 122.254 31.9379 122.53C32.0739 122.802 32.2439 123.002 32.4479 123.13C32.6559 123.258 32.9019 123.322 33.1859 123.322C33.5299 123.322 33.8239 123.204 34.0679 122.968C34.3159 122.732 34.5039 122.36 34.6319 121.852C34.7639 121.34 34.8299 120.678 34.8299 119.866C34.8299 119.042 34.7719 118.376 34.6559 117.868C34.5439 117.36 34.3659 116.992 34.1219 116.764C33.8819 116.532 33.5699 116.416 33.1859 116.416ZM34.4039 116.71L34.6679 117.592L32.0399 122.914L31.6679 122.212L34.4039 116.71ZM40.3813 115.606C41.2733 115.606 41.9473 115.974 42.4033 116.71C42.8593 117.446 43.0872 118.498 43.0872 119.866C43.0872 121.238 42.8593 122.294 42.4033 123.034C41.9473 123.77 41.2733 124.138 40.3813 124.138C39.4933 124.138 38.8193 123.77 38.3593 123.034C37.9033 122.294 37.6753 121.238 37.6753 119.866C37.6753 118.498 37.9033 117.446 38.3593 116.71C38.8193 115.974 39.4933 115.606 40.3813 115.606ZM40.3813 116.416C39.8733 116.416 39.4733 116.686 39.1813 117.226C38.8893 117.762 38.7433 118.642 38.7433 119.866C38.7433 120.486 38.7753 121.016 38.8393 121.456C38.9033 121.896 39.0013 122.254 39.1333 122.53C39.2693 122.802 39.4393 123.002 39.6433 123.13C39.8513 123.258 40.0973 123.322 40.3813 123.322C40.7253 123.322 41.0193 123.204 41.2633 122.968C41.5113 122.732 41.6993 122.36 41.8273 121.852C41.9593 121.34 42.0253 120.678 42.0253 119.866C42.0253 119.042 41.9673 118.376 41.8513 117.868C41.7393 117.36 41.5613 116.992 41.3173 116.764C41.0773 116.532 40.7653 116.416 40.3813 116.416ZM41.5993 116.71L41.8633 117.592L39.2353 122.914L38.8633 122.212L41.5993 116.71ZM47.5766 115.606C48.4686 115.606 49.1426 115.974 49.5986 116.71C50.0546 117.446 50.2826 118.498 50.2826 119.866C50.2826 121.238 50.0546 122.294 49.5986 123.034C49.1426 123.77 48.4686 124.138 47.5766 124.138C46.6886 124.138 46.0146 123.77 45.5546 123.034C45.0986 122.294 44.8706 121.238 44.8706 119.866C44.8706 118.498 45.0986 117.446 45.5546 116.71C46.0146 115.974 46.6886 115.606 47.5766 115.606ZM47.5766 116.416C47.0686 116.416 46.6686 116.686 46.3766 117.226C46.0846 117.762 45.9386 118.642 45.9386 119.866C45.9386 120.486 45.9706 121.016 46.0346 121.456C46.0986 121.896 46.1966 122.254 46.3286 122.53C46.4646 122.802 46.6346 123.002 46.8386 123.13C47.0466 123.258 47.2926 123.322 47.5766 123.322C47.9206 123.322 48.2146 123.204 48.4586 122.968C48.7066 122.732 48.8946 122.36 49.0226 121.852C49.1546 121.34 49.2206 120.678 49.2206 119.866C49.2206 119.042 49.1626 118.376 49.0466 117.868C48.9346 117.36 48.7566 116.992 48.5126 116.764C48.2726 116.532 47.9606 116.416 47.5766 116.416ZM48.7946 116.71L49.0586 117.592L46.4306 122.914L46.0586 122.212L48.7946 116.71ZM55.6539 115.738V123.76H54.6459V116.83L52.7499 117.982L52.3119 117.262L54.7719 115.738H55.6539ZM57.3819 123.178V124H52.6119V123.178H57.3819ZM61.9672 115.606C62.8592 115.606 63.5332 115.974 63.9892 116.71C64.4452 117.446 64.6732 118.498 64.6732 119.866C64.6732 121.238 64.4452 122.294 63.9892 123.034C63.5332 123.77 62.8592 124.138 61.9672 124.138C61.0792 124.138 60.4052 123.77 59.9452 123.034C59.4892 122.294 59.2612 121.238 59.2612 119.866C59.2612 118.498 59.4892 117.446 59.9452 116.71C60.4052 115.974 61.0792 115.606 61.9672 115.606ZM61.9672 116.416C61.4592 116.416 61.0592 116.686 60.7672 117.226C60.4752 117.762 60.3292 118.642 60.3292 119.866C60.3292 120.486 60.3612 121.016 60.4252 121.456C60.4892 121.896 60.5872 122.254 60.7192 122.53C60.8552 122.802 61.0252 123.002 61.2292 123.13C61.4372 123.258 61.6832 123.322 61.9672 123.322C62.3112 123.322 62.6052 123.204 62.8492 122.968C63.0972 122.732 63.2852 122.36 63.4132 121.852C63.5452 121.34 63.6112 120.678 63.6112 119.866C63.6112 119.042 63.5532 118.376 63.4372 117.868C63.3252 117.36 63.1472 116.992 62.9032 116.764C62.6632 116.532 62.3512 116.416 61.9672 116.416ZM63.1852 116.71L63.4492 117.592L60.8212 122.914L60.4492 122.212L63.1852 116.71ZM76.3578 115.606C77.2498 115.606 77.9238 115.974 78.3798 116.71C78.8358 117.446 79.0638 118.498 79.0638 119.866C79.0638 121.238 78.8358 122.294 78.3798 123.034C77.9238 123.77 77.2498 124.138 76.3578 124.138C75.4698 124.138 74.7958 123.77 74.3358 123.034C73.8798 122.294 73.6518 121.238 73.6518 119.866C73.6518 118.498 73.8798 117.446 74.3358 116.71C74.7958 115.974 75.4698 115.606 76.3578 115.606ZM76.3578 116.416C75.8498 116.416 75.4498 116.686 75.1578 117.226C74.8658 117.762 74.7198 118.642 74.7198 119.866C74.7198 120.486 74.7518 121.016 74.8158 121.456C74.8798 121.896 74.9778 122.254 75.1098 122.53C75.2458 122.802 75.4158 123.002 75.6198 123.13C75.8278 123.258 76.0738 123.322 76.3578 123.322C76.7018 123.322 76.9958 123.204 77.2398 122.968C77.4878 122.732 77.6758 122.36 77.8038 121.852C77.9358 121.34 78.0018 120.678 78.0018 119.866C78.0018 119.042 77.9438 118.376 77.8278 117.868C77.7158 117.36 77.5378 116.992 77.2938 116.764C77.0538 116.532 76.7418 116.416 76.3578 116.416ZM77.5758 116.71L77.8398 117.592L75.2118 122.914L74.8398 122.212L77.5758 116.71ZM84.4351 115.738V123.76H83.4271V116.83L81.5311 117.982L81.0931 117.262L83.5531 115.738H84.4351ZM86.1631 123.178V124H81.3931V123.178H86.1631ZM91.6304 115.738V123.76H90.6224V116.83L88.7264 117.982L88.2884 117.262L90.7484 115.738H91.6304ZM93.3584 123.178V124H88.5884V123.178H93.3584ZM97.9438 115.606C98.8358 115.606 99.5098 115.974 99.9658 116.71C100.422 117.446 100.65 118.498 100.65 119.866C100.65 121.238 100.422 122.294 99.9658 123.034C99.5098 123.77 98.8358 124.138 97.9438 124.138C97.0558 124.138 96.3818 123.77 95.9218 123.034C95.4658 122.294 95.2378 121.238 95.2378 119.866C95.2378 118.498 95.4658 117.446 95.9218 116.71C96.3818 115.974 97.0558 115.606 97.9438 115.606ZM97.9438 116.416C97.4358 116.416 97.0358 116.686 96.7438 117.226C96.4518 117.762 96.3058 118.642 96.3058 119.866C96.3058 120.486 96.3378 121.016 96.4018 121.456C96.4658 121.896 96.5638 122.254 96.6958 122.53C96.8318 122.802 97.0018 123.002 97.2058 123.13C97.4138 123.258 97.6598 123.322 97.9438 123.322C98.2878 123.322 98.5818 123.204 98.8258 122.968C99.0738 122.732 99.2618 122.36 99.3898 121.852C99.5218 121.34 99.5878 120.678 99.5878 119.866C99.5878 119.042 99.5298 118.376 99.4138 117.868C99.3018 117.36 99.1238 116.992 98.8798 116.764C98.6398 116.532 98.3278 116.416 97.9438 116.416ZM99.1618 116.71L99.4258 117.592L96.7978 122.914L96.4258 122.212L99.1618 116.71ZM106.021 115.738V123.76H105.013V116.83L103.117 117.982L102.679 117.262L105.139 115.738H106.021ZM107.749 123.178V124H102.979V123.178H107.749ZM112.334 115.606C113.226 115.606 113.9 115.974 114.356 116.71C114.812 117.446 115.04 118.498 115.04 119.866C115.04 121.238 114.812 122.294 114.356 123.034C113.9 123.77 113.226 124.138 112.334 124.138C111.446 124.138 110.772 123.77 110.312 123.034C109.856 122.294 109.628 121.238 109.628 119.866C109.628 118.498 109.856 117.446 110.312 116.71C110.772 115.974 111.446 115.606 112.334 115.606ZM112.334 116.416C111.826 116.416 111.426 116.686 111.134 117.226C110.842 117.762 110.696 118.642 110.696 119.866C110.696 120.486 110.728 121.016 110.792 121.456C110.856 121.896 110.954 122.254 111.086 122.53C111.222 122.802 111.392 123.002 111.596 123.13C111.804 123.258 112.05 123.322 112.334 123.322C112.678 123.322 112.972 123.204 113.216 122.968C113.464 122.732 113.652 122.36 113.78 121.852C113.912 121.34 113.978 120.678 113.978 119.866C113.978 119.042 113.92 118.376 113.804 117.868C113.692 117.36 113.514 116.992 113.27 116.764C113.03 116.532 112.718 116.416 112.334 116.416ZM113.552 116.71L113.816 117.592L111.188 122.914L110.816 122.212L113.552 116.71ZM119.53 115.606C120.422 115.606 121.096 115.974 121.552 116.71C122.008 117.446 122.236 118.498 122.236 119.866C122.236 121.238 122.008 122.294 121.552 123.034C121.096 123.77 120.422 124.138 119.53 124.138C118.642 124.138 117.968 123.77 117.508 123.034C117.052 122.294 116.824 121.238 116.824 119.866C116.824 118.498 117.052 117.446 117.508 116.71C117.968 115.974 118.642 115.606 119.53 115.606ZM119.53 116.416C119.022 116.416 118.622 116.686 118.33 117.226C118.038 117.762 117.892 118.642 117.892 119.866C117.892 120.486 117.924 121.016 117.988 121.456C118.052 121.896 118.15 122.254 118.282 122.53C118.418 122.802 118.588 123.002 118.792 123.13C119 123.258 119.246 123.322 119.53 123.322C119.874 123.322 120.168 123.204 120.412 122.968C120.66 122.732 120.848 122.36 120.976 121.852C121.108 121.34 121.174 120.678 121.174 119.866C121.174 119.042 121.116 118.376 121 117.868C120.888 117.36 120.71 116.992 120.466 116.764C120.226 116.532 119.914 116.416 119.53 116.416ZM120.748 116.71L121.012 117.592L118.384 122.914L118.012 122.212L120.748 116.71ZM127.607 115.738V123.76H126.599V116.83L124.703 117.982L124.265 117.262L126.725 115.738H127.607ZM129.335 123.178V124H124.565V123.178H129.335ZM141.116 115.606C142.008 115.606 142.682 115.974 143.138 116.71C143.594 117.446 143.822 118.498 143.822 119.866C143.822 121.238 143.594 122.294 143.138 123.034C142.682 123.77 142.008 124.138 141.116 124.138C140.228 124.138 139.554 123.77 139.094 123.034C138.638 122.294 138.41 121.238 138.41 119.866C138.41 118.498 138.638 117.446 139.094 116.71C139.554 115.974 140.228 115.606 141.116 115.606ZM141.116 116.416C140.608 116.416 140.208 116.686 139.916 117.226C139.624 117.762 139.478 118.642 139.478 119.866C139.478 120.486 139.51 121.016 139.574 121.456C139.638 121.896 139.736 122.254 139.868 122.53C140.004 122.802 140.174 123.002 140.378 123.13C140.586 123.258 140.832 123.322 141.116 123.322C141.46 123.322 141.754 123.204 141.998 122.968C142.246 122.732 142.434 122.36 142.562 121.852C142.694 121.34 142.76 120.678 142.76 119.866C142.76 119.042 142.702 118.376 142.586 117.868C142.474 117.36 142.296 116.992 142.052 116.764C141.812 116.532 141.5 116.416 141.116 116.416ZM142.334 116.71L142.598 117.592L139.97 122.914L139.598 122.212L142.334 116.71ZM149.193 115.738V123.76H148.185V116.83L146.289 117.982L145.851 117.262L148.311 115.738H149.193ZM150.921 123.178V124H146.151V123.178H150.921ZM156.388 115.738V123.76H155.38V116.83L153.484 117.982L153.046 117.262L155.506 115.738H156.388ZM158.116 123.178V124H153.346V123.178H158.116ZM163.584 115.738V123.76H162.576V116.83L160.68 117.982L160.242 117.262L162.702 115.738H163.584ZM165.312 123.178V124H160.542V123.178H165.312ZM169.897 115.606C170.789 115.606 171.463 115.974 171.919 116.71C172.375 117.446 172.603 118.498 172.603 119.866C172.603 121.238 172.375 122.294 171.919 123.034C171.463 123.77 170.789 124.138 169.897 124.138C169.009 124.138 168.335 123.77 167.875 123.034C167.419 122.294 167.191 121.238 167.191 119.866C167.191 118.498 167.419 117.446 167.875 116.71C168.335 115.974 169.009 115.606 169.897 115.606ZM169.897 116.416C169.389 116.416 168.989 116.686 168.697 117.226C168.405 117.762 168.259 118.642 168.259 119.866C168.259 120.486 168.291 121.016 168.355 121.456C168.419 121.896 168.517 122.254 168.649 122.53C168.785 122.802 168.955 123.002 169.159 123.13C169.367 123.258 169.613 123.322 169.897 123.322C170.241 123.322 170.535 123.204 170.779 122.968C171.027 122.732 171.215 122.36 171.343 121.852C171.475 121.34 171.541 120.678 171.541 119.866C171.541 119.042 171.483 118.376 171.367 117.868C171.255 117.36 171.077 116.992 170.833 116.764C170.593 116.532 170.281 116.416 169.897 116.416ZM171.115 116.71L171.379 117.592L168.751 122.914L168.379 122.212L171.115 116.71ZM177.974 115.738V123.76H176.966V116.83L175.07 117.982L174.632 117.262L177.092 115.738H177.974ZM179.702 123.178V124H174.932V123.178H179.702ZM184.288 115.606C185.18 115.606 185.854 115.974 186.31 116.71C186.766 117.446 186.993 118.498 186.993 119.866C186.993 121.238 186.766 122.294 186.31 123.034C185.854 123.77 185.18 124.138 184.288 124.138C183.4 124.138 182.726 123.77 182.266 123.034C181.81 122.294 181.582 121.238 181.582 119.866C181.582 118.498 181.81 117.446 182.266 116.71C182.726 115.974 183.4 115.606 184.288 115.606ZM184.288 116.416C183.78 116.416 183.38 116.686 183.088 117.226C182.796 117.762 182.65 118.642 182.65 119.866C182.65 120.486 182.682 121.016 182.746 121.456C182.81 121.896 182.908 122.254 183.04 122.53C183.176 122.802 183.346 123.002 183.55 123.13C183.758 123.258 184.004 123.322 184.288 123.322C184.632 123.322 184.926 123.204 185.17 122.968C185.418 122.732 185.606 122.36 185.734 121.852C185.866 121.34 185.932 120.678 185.932 119.866C185.932 119.042 185.874 118.376 185.758 117.868C185.646 117.36 185.468 116.992 185.224 116.764C184.984 116.532 184.672 116.416 184.288 116.416ZM185.506 116.71L185.77 117.592L183.142 122.914L182.77 122.212L185.506 116.71ZM191.483 115.606C192.375 115.606 193.049 115.974 193.505 116.71C193.961 117.446 194.189 118.498 194.189 119.866C194.189 121.238 193.961 122.294 193.505 123.034C193.049 123.77 192.375 124.138 191.483 124.138C190.595 124.138 189.921 123.77 189.461 123.034C189.005 122.294 188.777 121.238 188.777 119.866C188.777 118.498 189.005 117.446 189.461 116.71C189.921 115.974 190.595 115.606 191.483 115.606ZM191.483 116.416C190.975 116.416 190.575 116.686 190.283 117.226C189.991 117.762 189.845 118.642 189.845 119.866C189.845 120.486 189.877 121.016 189.941 121.456C190.005 121.896 190.103 122.254 190.235 122.53C190.371 122.802 190.541 123.002 190.745 123.13C190.953 123.258 191.199 123.322 191.483 123.322C191.827 123.322 192.121 123.204 192.365 122.968C192.613 122.732 192.801 122.36 192.929 121.852C193.061 121.34 193.127 120.678 193.127 119.866C193.127 119.042 193.069 118.376 192.953 117.868C192.841 117.36 192.663 116.992 192.419 116.764C192.179 116.532 191.867 116.416 191.483 116.416ZM192.701 116.71L192.965 117.592L190.337 122.914L189.965 122.212L192.701 116.71ZM205.873 115.606C206.765 115.606 207.439 115.974 207.895 116.71C208.351 117.446 208.579 118.498 208.579 119.866C208.579 121.238 208.351 122.294 207.895 123.034C207.439 123.77 206.765 124.138 205.873 124.138C204.985 124.138 204.311 123.77 203.851 123.034C203.395 122.294 203.167 121.238 203.167 119.866C203.167 118.498 203.395 117.446 203.851 116.71C204.311 115.974 204.985 115.606 205.873 115.606ZM205.873 116.416C205.365 116.416 204.965 116.686 204.673 117.226C204.381 117.762 204.235 118.642 204.235 119.866C204.235 120.486 204.267 121.016 204.331 121.456C204.395 121.896 204.493 122.254 204.625 122.53C204.761 122.802 204.931 123.002 205.135 123.13C205.343 123.258 205.589 123.322 205.873 123.322C206.217 123.322 206.511 123.204 206.755 122.968C207.003 122.732 207.191 122.36 207.319 121.852C207.451 121.34 207.517 120.678 207.517 119.866C207.517 119.042 207.459 118.376 207.343 117.868C207.231 117.36 207.053 116.992 206.809 116.764C206.569 116.532 206.257 116.416 205.873 116.416ZM207.091 116.71L207.355 117.592L204.727 122.914L204.355 122.212L207.091 116.71ZM213.951 115.738V123.76H212.943V116.83L211.047 117.982L210.609 117.262L213.069 115.738H213.951ZM215.679 123.178V124H210.909V123.178H215.679ZM220.264 115.606C221.156 115.606 221.83 115.974 222.286 116.71C222.742 117.446 222.97 118.498 222.97 119.866C222.97 121.238 222.742 122.294 222.286 123.034C221.83 123.77 221.156 124.138 220.264 124.138C219.376 124.138 218.702 123.77 218.242 123.034C217.786 122.294 217.558 121.238 217.558 119.866C217.558 118.498 217.786 117.446 218.242 116.71C218.702 115.974 219.376 115.606 220.264 115.606ZM220.264 116.416C219.756 116.416 219.356 116.686 219.064 117.226C218.772 117.762 218.626 118.642 218.626 119.866C218.626 120.486 218.658 121.016 218.722 121.456C218.786 121.896 218.884 122.254 219.016 122.53C219.152 122.802 219.322 123.002 219.526 123.13C219.734 123.258 219.98 123.322 220.264 123.322C220.608 123.322 220.902 123.204 221.146 122.968C221.394 122.732 221.582 122.36 221.71 121.852C221.842 121.34 221.908 120.678 221.908 119.866C221.908 119.042 221.85 118.376 221.734 117.868C221.622 117.36 221.444 116.992 221.2 116.764C220.96 116.532 220.648 116.416 220.264 116.416ZM221.482 116.71L221.746 117.592L219.118 122.914L218.746 122.212L221.482 116.71ZM227.459 115.606C228.351 115.606 229.025 115.974 229.481 116.71C229.937 117.446 230.165 118.498 230.165 119.866C230.165 121.238 229.937 122.294 229.481 123.034C229.025 123.77 228.351 124.138 227.459 124.138C226.571 124.138 225.897 123.77 225.437 123.034C224.981 122.294 224.753 121.238 224.753 119.866C224.753 118.498 224.981 117.446 225.437 116.71C225.897 115.974 226.571 115.606 227.459 115.606ZM227.459 116.416C226.951 116.416 226.551 116.686 226.259 117.226C225.967 117.762 225.821 118.642 225.821 119.866C225.821 120.486 225.853 121.016 225.917 121.456C225.981 121.896 226.079 122.254 226.211 122.53C226.347 122.802 226.517 123.002 226.721 123.13C226.929 123.258 227.175 123.322 227.459 123.322C227.803 123.322 228.097 123.204 228.341 122.968C228.589 122.732 228.777 122.36 228.905 121.852C229.037 121.34 229.103 120.678 229.103 119.866C229.103 119.042 229.045 118.376 228.929 117.868C228.817 117.36 228.639 116.992 228.395 116.764C228.155 116.532 227.843 116.416 227.459 116.416ZM228.677 116.71L228.941 117.592L226.313 122.914L225.941 122.212L228.677 116.71ZM235.537 115.738V123.76H234.529V116.83L232.633 117.982L232.195 117.262L234.655 115.738H235.537ZM237.265 123.178V124H232.495V123.178H237.265ZM242.732 115.738V123.76H241.724V116.83L239.828 117.982L239.39 117.262L241.85 115.738H242.732ZM244.46 123.178V124H239.69V123.178H244.46ZM249.045 115.606C249.937 115.606 250.611 115.974 251.067 116.71C251.523 117.446 251.751 118.498 251.751 119.866C251.751 121.238 251.523 122.294 251.067 123.034C250.611 123.77 249.937 124.138 249.045 124.138C248.157 124.138 247.483 123.77 247.023 123.034C246.567 122.294 246.339 121.238 246.339 119.866C246.339 118.498 246.567 117.446 247.023 116.71C247.483 115.974 248.157 115.606 249.045 115.606ZM249.045 116.416C248.537 116.416 248.137 116.686 247.845 117.226C247.553 117.762 247.407 118.642 247.407 119.866C247.407 120.486 247.439 121.016 247.503 121.456C247.567 121.896 247.665 122.254 247.797 122.53C247.933 122.802 248.103 123.002 248.307 123.13C248.515 123.258 248.761 123.322 249.045 123.322C249.389 123.322 249.683 123.204 249.927 122.968C250.175 122.732 250.363 122.36 250.491 121.852C250.623 121.34 250.689 120.678 250.689 119.866C250.689 119.042 250.631 118.376 250.515 117.868C250.403 117.36 250.225 116.992 249.981 116.764C249.741 116.532 249.429 116.416 249.045 116.416ZM250.263 116.71L250.527 117.592L247.899 122.914L247.527 122.212L250.263 116.71ZM256.241 115.606C257.133 115.606 257.807 115.974 258.263 116.71C258.719 117.446 258.947 118.498 258.947 119.866C258.947 121.238 258.719 122.294 258.263 123.034C257.807 123.77 257.133 124.138 256.241 124.138C255.353 124.138 254.679 123.77 254.219 123.034C253.763 122.294 253.535 121.238 253.535 119.866C253.535 118.498 253.763 117.446 254.219 116.71C254.679 115.974 255.353 115.606 256.241 115.606ZM256.241 116.416C255.733 116.416 255.333 116.686 255.041 117.226C254.749 117.762 254.603 118.642 254.603 119.866C254.603 120.486 254.635 121.016 254.699 121.456C254.763 121.896 254.861 122.254 254.993 122.53C255.129 122.802 255.299 123.002 255.503 123.13C255.711 123.258 255.957 123.322 256.241 123.322C256.585 123.322 256.879 123.204 257.123 122.968C257.371 122.732 257.559 122.36 257.687 121.852C257.819 121.34 257.885 120.678 257.885 119.866C257.885 119.042 257.827 118.376 257.711 117.868C257.599 117.36 257.421 116.992 257.177 116.764C256.937 116.532 256.625 116.416 256.241 116.416ZM257.459 116.71L257.723 117.592L255.095 122.914L254.723 122.212L257.459 116.71ZM270.631 115.606C271.523 115.606 272.197 115.974 272.653 116.71C273.109 117.446 273.337 118.498 273.337 119.866C273.337 121.238 273.109 122.294 272.653 123.034C272.197 123.77 271.523 124.138 270.631 124.138C269.743 124.138 269.069 123.77 268.609 123.034C268.153 122.294 267.925 121.238 267.925 119.866C267.925 118.498 268.153 117.446 268.609 116.71C269.069 115.974 269.743 115.606 270.631 115.606ZM270.631 116.416C270.123 116.416 269.723 116.686 269.431 117.226C269.139 117.762 268.993 118.642 268.993 119.866C268.993 120.486 269.025 121.016 269.089 121.456C269.153 121.896 269.251 122.254 269.383 122.53C269.519 122.802 269.689 123.002 269.893 123.13C270.101 123.258 270.347 123.322 270.631 123.322C270.975 123.322 271.269 123.204 271.513 122.968C271.761 122.732 271.949 122.36 272.077 121.852C272.209 121.34 272.275 120.678 272.275 119.866C272.275 119.042 272.217 118.376 272.101 117.868C271.989 117.36 271.811 116.992 271.567 116.764C271.327 116.532 271.015 116.416 270.631 116.416ZM271.849 116.71L272.113 117.592L269.485 122.914L269.113 122.212L271.849 116.71ZM278.709 115.738V123.76H277.701V116.83L275.805 117.982L275.367 117.262L277.827 115.738H278.709ZM280.437 123.178V124H275.667V123.178H280.437ZM285.904 115.738V123.76H284.896V116.83L283 117.982L282.562 117.262L285.022 115.738H285.904ZM287.632 123.178V124H282.862V123.178H287.632ZM292.217 115.606C293.109 115.606 293.783 115.974 294.239 116.71C294.695 117.446 294.923 118.498 294.923 119.866C294.923 121.238 294.695 122.294 294.239 123.034C293.783 123.77 293.109 124.138 292.217 124.138C291.329 124.138 290.655 123.77 290.195 123.034C289.739 122.294 289.511 121.238 289.511 119.866C289.511 118.498 289.739 117.446 290.195 116.71C290.655 115.974 291.329 115.606 292.217 115.606ZM292.217 116.416C291.709 116.416 291.309 116.686 291.017 117.226C290.725 117.762 290.579 118.642 290.579 119.866C290.579 120.486 290.611 121.016 290.675 121.456C290.739 121.896 290.837 122.254 290.969 122.53C291.105 122.802 291.275 123.002 291.479 123.13C291.687 123.258 291.933 123.322 292.217 123.322C292.561 123.322 292.855 123.204 293.099 122.968C293.347 122.732 293.535 122.36 293.663 121.852C293.795 121.34 293.861 120.678 293.861 119.866C293.861 119.042 293.803 118.376 293.687 117.868C293.575 117.36 293.397 116.992 293.153 116.764C292.913 116.532 292.601 116.416 292.217 116.416ZM293.435 116.71L293.699 117.592L291.071 122.914L290.699 122.212L293.435 116.71ZM300.295 115.738V123.76H299.287V116.83L297.391 117.982L296.953 117.262L299.413 115.738H300.295ZM302.023 123.178V124H297.253V123.178H302.023ZM306.608 115.606C307.5 115.606 308.174 115.974 308.63 116.71C309.086 117.446 309.314 118.498 309.314 119.866C309.314 121.238 309.086 122.294 308.63 123.034C308.174 123.77 307.5 124.138 306.608 124.138C305.72 124.138 305.046 123.77 304.586 123.034C304.13 122.294 303.902 121.238 303.902 119.866C303.902 118.498 304.13 117.446 304.586 116.71C305.046 115.974 305.72 115.606 306.608 115.606ZM306.608 116.416C306.1 116.416 305.7 116.686 305.408 117.226C305.116 117.762 304.97 118.642 304.97 119.866C304.97 120.486 305.002 121.016 305.066 121.456C305.13 121.896 305.228 122.254 305.36 122.53C305.496 122.802 305.666 123.002 305.87 123.13C306.078 123.258 306.324 123.322 306.608 123.322C306.952 123.322 307.246 123.204 307.49 122.968C307.738 122.732 307.926 122.36 308.054 121.852C308.186 121.34 308.252 120.678 308.252 119.866C308.252 119.042 308.194 118.376 308.078 117.868C307.966 117.36 307.788 116.992 307.544 116.764C307.304 116.532 306.992 116.416 306.608 116.416ZM307.826 116.71L308.09 117.592L305.462 122.914L305.09 122.212L307.826 116.71ZM313.803 115.606C314.695 115.606 315.369 115.974 315.825 116.71C316.281 117.446 316.509 118.498 316.509 119.866C316.509 121.238 316.281 122.294 315.825 123.034C315.369 123.77 314.695 124.138 313.803 124.138C312.915 124.138 312.241 123.77 311.781 123.034C311.325 122.294 311.097 121.238 311.097 119.866C311.097 118.498 311.325 117.446 311.781 116.71C312.241 115.974 312.915 115.606 313.803 115.606ZM313.803 116.416C313.295 116.416 312.895 116.686 312.603 117.226C312.311 117.762 312.165 118.642 312.165 119.866C312.165 120.486 312.197 121.016 312.261 121.456C312.325 121.896 312.423 122.254 312.555 122.53C312.691 122.802 312.861 123.002 313.065 123.13C313.273 123.258 313.519 123.322 313.803 123.322C314.147 123.322 314.441 123.204 314.685 122.968C314.933 122.732 315.121 122.36 315.249 121.852C315.381 121.34 315.447 120.678 315.447 119.866C315.447 119.042 315.389 118.376 315.273 117.868C315.161 117.36 314.983 116.992 314.739 116.764C314.499 116.532 314.187 116.416 313.803 116.416ZM315.021 116.71L315.285 117.592L312.657 122.914L312.285 122.212L315.021 116.71ZM321.88 115.738V123.76H320.872V116.83L318.976 117.982L318.538 117.262L320.998 115.738H321.88ZM323.608 123.178V124H318.838V123.178H323.608ZM335.389 115.606C336.281 115.606 336.955 115.974 337.411 116.71C337.867 117.446 338.095 118.498 338.095 119.866C338.095 121.238 337.867 122.294 337.411 123.034C336.955 123.77 336.281 124.138 335.389 124.138C334.501 124.138 333.827 123.77 333.367 123.034C332.911 122.294 332.683 121.238 332.683 119.866C332.683 118.498 332.911 117.446 333.367 116.71C333.827 115.974 334.501 115.606 335.389 115.606ZM335.389 116.416C334.881 116.416 334.481 116.686 334.189 117.226C333.897 117.762 333.751 118.642 333.751 119.866C333.751 120.486 333.783 121.016 333.847 121.456C333.911 121.896 334.009 122.254 334.141 122.53C334.277 122.802 334.447 123.002 334.651 123.13C334.859 123.258 335.105 123.322 335.389 123.322C335.733 123.322 336.027 123.204 336.271 122.968C336.519 122.732 336.707 122.36 336.835 121.852C336.967 121.34 337.033 120.678 337.033 119.866C337.033 119.042 336.975 118.376 336.859 117.868C336.747 117.36 336.569 116.992 336.325 116.764C336.085 116.532 335.773 116.416 335.389 116.416ZM336.607 116.71L336.871 117.592L334.243 122.914L333.871 122.212L336.607 116.71ZM343.466 115.738V123.76H342.458V116.83L340.562 117.982L340.124 117.262L342.584 115.738H343.466ZM345.194 123.178V124H340.424V123.178H345.194ZM350.662 115.738V123.76H349.654V116.83L347.758 117.982L347.32 117.262L349.78 115.738H350.662ZM352.39 123.178V124H347.62V123.178H352.39ZM356.975 115.606C357.867 115.606 358.541 115.974 358.997 116.71C359.453 117.446 359.681 118.498 359.681 119.866C359.681 121.238 359.453 122.294 358.997 123.034C358.541 123.77 357.867 124.138 356.975 124.138C356.087 124.138 355.413 123.77 354.953 123.034C354.497 122.294 354.269 121.238 354.269 119.866C354.269 118.498 354.497 117.446 354.953 116.71C355.413 115.974 356.087 115.606 356.975 115.606ZM356.975 116.416C356.467 116.416 356.067 116.686 355.775 117.226C355.483 117.762 355.337 118.642 355.337 119.866C355.337 120.486 355.369 121.016 355.433 121.456C355.497 121.896 355.595 122.254 355.727 122.53C355.863 122.802 356.033 123.002 356.237 123.13C356.445 123.258 356.691 123.322 356.975 123.322C357.319 123.322 357.613 123.204 357.857 122.968C358.105 122.732 358.293 122.36 358.421 121.852C358.553 121.34 358.619 120.678 358.619 119.866C358.619 119.042 358.561 118.376 358.445 117.868C358.333 117.36 358.155 116.992 357.911 116.764C357.671 116.532 357.359 116.416 356.975 116.416ZM358.193 116.71L358.457 117.592L355.829 122.914L355.457 122.212L358.193 116.71ZM365.052 115.738V123.76H364.044V116.83L362.148 117.982L361.71 117.262L364.17 115.738H365.052ZM366.78 123.178V124H362.01V123.178H366.78ZM372.248 115.738V123.76H371.24V116.83L369.344 117.982L368.906 117.262L371.366 115.738H372.248ZM373.976 123.178V124H369.206V123.178H373.976ZM379.443 115.738V123.76H378.435V116.83L376.539 117.982L376.101 117.262L378.561 115.738H379.443ZM381.171 123.178V124H376.401V123.178H381.171ZM385.756 115.606C386.648 115.606 387.322 115.974 387.778 116.71C388.234 117.446 388.462 118.498 388.462 119.866C388.462 121.238 388.234 122.294 387.778 123.034C387.322 123.77 386.648 124.138 385.756 124.138C384.868 124.138 384.194 123.77 383.734 123.034C383.278 122.294 383.05 121.238 383.05 119.866C383.05 118.498 383.278 117.446 383.734 116.71C384.194 115.974 384.868 115.606 385.756 115.606ZM385.756 116.416C385.248 116.416 384.848 116.686 384.556 117.226C384.264 117.762 384.118 118.642 384.118 119.866C384.118 120.486 384.15 121.016 384.214 121.456C384.278 121.896 384.376 122.254 384.508 122.53C384.644 122.802 384.814 123.002 385.018 123.13C385.226 123.258 385.472 123.322 385.756 123.322C386.1 123.322 386.394 123.204 386.638 122.968C386.886 122.732 387.074 122.36 387.202 121.852C387.334 121.34 387.4 120.678 387.4 119.866C387.4 119.042 387.342 118.376 387.226 117.868C387.114 117.36 386.936 116.992 386.692 116.764C386.452 116.532 386.14 116.416 385.756 116.416ZM386.974 116.71L387.238 117.592L384.61 122.914L384.238 122.212L386.974 116.71ZM400.147 115.606C401.039 115.606 401.713 115.974 402.169 116.71C402.625 117.446 402.853 118.498 402.853 119.866C402.853 121.238 402.625 122.294 402.169 123.034C401.713 123.77 401.039 124.138 400.147 124.138C399.259 124.138 398.585 123.77 398.125 123.034C397.669 122.294 397.441 121.238 397.441 119.866C397.441 118.498 397.669 117.446 398.125 116.71C398.585 115.974 399.259 115.606 400.147 115.606ZM400.147 116.416C399.639 116.416 399.239 116.686 398.947 117.226C398.655 117.762 398.509 118.642 398.509 119.866C398.509 120.486 398.541 121.016 398.605 121.456C398.669 121.896 398.767 122.254 398.899 122.53C399.035 122.802 399.205 123.002 399.409 123.13C399.617 123.258 399.863 123.322 400.147 123.322C400.491 123.322 400.785 123.204 401.029 122.968C401.277 122.732 401.465 122.36 401.593 121.852C401.725 121.34 401.791 120.678 401.791 119.866C401.791 119.042 401.733 118.376 401.617 117.868C401.505 117.36 401.327 116.992 401.083 116.764C400.843 116.532 400.531 116.416 400.147 116.416ZM401.365 116.71L401.629 117.592L399.001 122.914L398.629 122.212L401.365 116.71ZM408.224 115.738V123.76H407.216V116.83L405.32 117.982L404.882 117.262L407.342 115.738H408.224ZM409.952 123.178V124H405.182V123.178H409.952ZM415.42 115.738V123.76H414.412V116.83L412.516 117.982L412.078 117.262L414.538 115.738H415.42ZM417.148 123.178V124H412.378V123.178H417.148ZM421.733 115.606C422.625 115.606 423.299 115.974 423.755 116.71C424.211 117.446 424.439 118.498 424.439 119.866C424.439 121.238 424.211 122.294 423.755 123.034C423.299 123.77 422.625 124.138 421.733 124.138C420.845 124.138 420.171 123.77 419.711 123.034C419.255 122.294 419.027 121.238 419.027 119.866C419.027 118.498 419.255 117.446 419.711 116.71C420.171 115.974 420.845 115.606 421.733 115.606ZM421.733 116.416C421.225 116.416 420.825 116.686 420.533 117.226C420.241 117.762 420.095 118.642 420.095 119.866C420.095 120.486 420.127 121.016 420.191 121.456C420.255 121.896 420.353 122.254 420.485 122.53C420.621 122.802 420.791 123.002 420.995 123.13C421.203 123.258 421.449 123.322 421.733 123.322C422.077 123.322 422.371 123.204 422.615 122.968C422.863 122.732 423.051 122.36 423.179 121.852C423.311 121.34 423.377 120.678 423.377 119.866C423.377 119.042 423.319 118.376 423.203 117.868C423.091 117.36 422.913 116.992 422.669 116.764C422.429 116.532 422.117 116.416 421.733 116.416ZM422.951 116.71L423.215 117.592L420.587 122.914L420.215 122.212L422.951 116.71ZM429.81 115.738V123.76H428.802V116.83L426.906 117.982L426.468 117.262L428.928 115.738H429.81ZM431.538 123.178V124H426.768V123.178H431.538ZM436.123 115.606C437.015 115.606 437.689 115.974 438.145 116.71C438.601 117.446 438.829 118.498 438.829 119.866C438.829 121.238 438.601 122.294 438.145 123.034C437.689 123.77 437.015 124.138 436.123 124.138C435.235 124.138 434.561 123.77 434.101 123.034C433.645 122.294 433.417 121.238 433.417 119.866C433.417 118.498 433.645 117.446 434.101 116.71C434.561 115.974 435.235 115.606 436.123 115.606ZM436.123 116.416C435.615 116.416 435.215 116.686 434.923 117.226C434.631 117.762 434.485 118.642 434.485 119.866C434.485 120.486 434.517 121.016 434.581 121.456C434.645 121.896 434.743 122.254 434.875 122.53C435.011 122.802 435.181 123.002 435.385 123.13C435.593 123.258 435.839 123.322 436.123 123.322C436.467 123.322 436.761 123.204 437.005 122.968C437.253 122.732 437.441 122.36 437.569 121.852C437.701 121.34 437.767 120.678 437.767 119.866C437.767 119.042 437.709 118.376 437.593 117.868C437.481 117.36 437.303 116.992 437.059 116.764C436.819 116.532 436.507 116.416 436.123 116.416ZM437.341 116.71L437.605 117.592L434.977 122.914L434.605 122.212L437.341 116.71ZM444.201 115.738V123.76H443.193V116.83L441.297 117.982L440.859 117.262L443.319 115.738H444.201ZM445.929 123.178V124H441.159V123.178H445.929ZM451.396 115.738V123.76H450.388V116.83L448.492 117.982L448.054 117.262L450.514 115.738H451.396ZM453.124 123.178V124H448.354V123.178H453.124Z" fill="white"/>
</g>
<path d="M154.2 104.2C152.3 104.2 150.233 104.067 148 103.8C145.767 103.567 143.167 103.1 140.2 102.4C140.867 101.233 141.65 100.167 142.55 99.2C143.45 98.2 144.483 97.45 145.65 96.95C146.85 96.45 148.2 96.3333 149.7 96.6C150.5 96.7 151.217 96.7833 151.85 96.85C152.517 96.8833 153.3 96.9 154.2 96.9C156.533 96.9 158.683 96.2833 160.65 95.05C162.617 93.7833 164.2 92.1 165.4 90C166.6 87.8667 167.2 85.5 167.2 82.9C167.2 79.5667 166.317 76.8333 164.55 74.7C162.817 72.5667 160.467 70.9833 157.5 69.95C154.567 68.9167 151.3 68.4 147.7 68.4H136.2V103H126.7V31.2C129.2 30.7 131.6 30.3 133.9 30C136.2 29.6667 138.467 29.4167 140.7 29.25C142.967 29.0833 145.3 29 147.7 29C153.367 29 158.067 29.8667 161.8 31.6C165.567 33.3 168.367 35.6167 170.2 38.55C172.067 41.45 173 44.7 173 48.3C173 50.7 172.367 53.3333 171.1 56.2C169.833 59.0333 167.967 61.2333 165.5 62.8L162.6 64.2L165.4 64.9C167.9 66.1 170.033 67.5667 171.8 69.3C173.6 71 174.967 72.9667 175.9 75.2C176.833 77.4 177.3 79.8333 177.3 82.5C177.3 85.0667 176.767 87.6333 175.7 90.2C174.667 92.7667 173.15 95.1167 171.15 97.25C169.183 99.35 166.767 101.033 163.9 102.3C161.067 103.567 157.833 104.2 154.2 104.2ZM136.2 61.5H147.7C151.033 61.5 153.833 60.9167 156.1 59.75C158.4 58.5833 160.133 57 161.3 55C162.5 53 163.1 50.7667 163.1 48.3C163.1 46.0333 162.517 44 161.35 42.2C160.183 40.4 158.45 38.9833 156.15 37.95C153.883 36.9167 151.067 36.4 147.7 36.4C145.9 36.4 143.983 36.45 141.95 36.55C139.917 36.65 138 36.8 136.2 37V61.5ZM190.258 103V51.3H199.858V103H190.258ZM195.058 42.3C193.358 42.3 191.924 41.7333 190.758 40.6C189.624 39.4333 189.058 38 189.058 36.3C189.058 34.5333 189.624 33.0833 190.758 31.95C191.924 30.7833 193.358 30.2 195.058 30.2C196.824 30.2 198.258 30.7833 199.358 31.95C200.491 33.0833 201.058 34.5333 201.058 36.3C201.058 38 200.491 39.4333 199.358 40.6C198.258 41.7333 196.824 42.3 195.058 42.3ZM234.944 104.1C229.51 104.1 225.327 102.317 222.394 98.75C219.494 95.1833 218.044 90.2333 218.044 83.9V58.2H208.844V53.7L218.044 51.3V38.1L226.844 35.3V85C226.844 88.4333 227.577 91.3167 229.044 93.65C230.544 95.95 232.51 97.1 234.944 97.1C236.244 97.1 237.494 96.9833 238.694 96.75C239.927 96.5167 241.41 96.1333 243.144 95.6L245.344 101.9C242.81 102.733 240.844 103.3 239.444 103.6C238.044 103.933 236.544 104.1 234.944 104.1ZM238.844 58.2C237.277 58.2 235.944 57.9 234.844 57.3C233.777 56.6667 232.877 55.8333 232.144 54.8C231.444 53.7333 230.877 52.5667 230.444 51.3H244.544V58.2H238.844ZM259.322 103V30.3H268.922V95.7H299.322L299.222 103H259.322ZM310.375 103V51.3H319.975V103H310.375ZM315.175 42.3C313.475 42.3 312.042 41.7333 310.875 40.6C309.742 39.4333 309.175 38 309.175 36.3C309.175 34.5333 309.742 33.0833 310.875 31.95C312.042 30.7833 313.475 30.2 315.175 30.2C316.942 30.2 318.375 30.7833 319.475 31.95C320.608 33.0833 321.175 34.5333 321.175 36.3C321.175 38 320.608 39.4333 319.475 40.6C318.375 41.7333 316.942 42.3 315.175 42.3ZM369.261 103V65.4C369.261 63.1 368.744 61.2167 367.711 59.75C366.678 58.25 365.128 57.5 363.061 57.5C362.261 57.5 361.561 57.5833 360.961 57.75C360.361 57.9167 359.628 58.1 358.761 58.3C356.828 58.7333 355.028 58.75 353.361 58.35C351.694 57.95 350.161 57.0333 348.761 55.6C352.328 53.5 355.294 52.1 357.661 51.4C360.061 50.6667 362.161 50.3 363.961 50.3C366.628 50.3 369.094 50.7833 371.361 51.75C373.628 52.7167 375.444 54.3667 376.811 56.7C378.178 59.0333 378.861 62.2667 378.861 66.4V103H369.261ZM336.461 103V63.9C336.461 62.0333 336.344 60.05 336.111 57.95C335.911 55.85 335.528 53.6333 334.961 51.3H342.161C343.761 53.1 344.811 54.8833 345.311 56.65C345.811 58.4167 346.061 60.3 346.061 62.3V103H336.461ZM432.631 103L418.831 77.9L417.831 76L416.631 77.3L410.131 84.7C409.398 82.7333 409.215 80.3667 409.581 77.6C409.981 74.8 411.098 72.3333 412.931 70.2L429.231 51.3H440.231L423.731 69.5L443.231 103H432.631ZM395.831 103V27.2H405.131V103H395.831Z" fill="white"/>
<circle cx="60.5" cy="16.5" r="12.5" fill="white"/>
<circle cx="99.5" cy="41.5" r="12.5" fill="white"/>
<circle cx="47.5" cy="90.5" r="12.5" fill="white"/>
<circle cx="16.5" cy="48.5" r="12.5" fill="white"/>
<circle cx="97.5" cy="90.5" r="12.5" fill="white"/>
<line x1="24.9688" y1="47.501" x2="88.9688" y2="43.501" stroke="white"/>
<line x1="23.2451" y1="47.5642" x2="87.2451" y2="83.5642" stroke="white"/>
<line x1="24.6911" y1="47.6068" x2="52.6911" y2="25.6068" stroke="white"/>
<line x1="24.4389" y1="47.7606" x2="42.4389" y2="80.7606" stroke="white"/>
</g>
<defs>
<filter id="filter0_d_2_45" x="0" y="4" width="457.124" height="128.138" filterUnits="userSpaceOnUse" color-interpolation-filters="sRGB">
<feFlood flood-opacity="0" result="BackgroundImageFix"/>
<feColorMatrix in="SourceAlpha" type="matrix" values="0 0 0 0 0 0 0 0 0 0 0 0 0 0 0 0 0 0 127 0" result="hardAlpha"/>
<feOffset dy="4"/>
<feGaussianBlur stdDeviation="2"/>
<feComposite in2="hardAlpha" operator="out"/>
<feColorMatrix type="matrix" values="0 0 0 0 0 0 0 0 0 0 0 0 0 0 0 0 0 0 0.35 0"/>
<feBlend mode="normal" in2="BackgroundImageFix" result="effect1_dropShadow_2_45"/>
<feBlend mode="normal" in="SourceGraphic" in2="effect1_dropShadow_2_45" result="shape"/>
</filter>
<filter id="filter1_i_2_45" x="8.89401" y="115.606" width="444.23" height="12.532" filterUnits="userSpaceOnUse" color-interpolation-filters="sRGB">
<feFlood flood-opacity="0" result="BackgroundImageFix"/>
<feBlend mode="normal" in="SourceGraphic" in2="BackgroundImageFix" result="shape"/>
<feColorMatrix in="SourceAlpha" type="matrix" values="0 0 0 0 0 0 0 0 0 0 0 0 0 0 0 0 0 0 127 0" result="hardAlpha"/>
<feOffset dy="4"/>
<feGaussianBlur stdDeviation="2"/>
<feComposite in2="hardAlpha" operator="arithmetic" k2="-1" k3="1"/>
<feColorMatrix type="matrix" values="0 0 0 0 0 0 0 0 0 0 0 0 0 0 0 0 0 0 0.25 0"/>
<feBlend mode="normal" in2="shape" result="effect1_innerShadow_2_45"/>
</filter>
</defs>
</svg>
